# AST/ASF file generated using VICON BodyLanguage
# -----------------------------------------------
:version 1.10
:name VICON
:units
  mass 1.0
  length 0.45
  angle deg
:documentation
   .ast/.asf automatically generated from VICON data using
   VICON BodyBuilder and BodyLanguage model FoxedUp or BRILLIANT.MOD
:root
   order TX TY TZ RX RY RZ
   axis XYZ
   position 0 0 0  
   orientation 0 0 0 
:bonedata
  begin
     id 1 
     name lhipjoint
     direction 0.537252 -0.787203 0.302774 
     length 2.29576 
     axis 0 0 0  XYZ
  end
  begin
     id 2 
     name lfemur
     direction 0.34202 -0.939693 0  
     length 7.31114  
     axis 0 0 20  XYZ
    dof rx ry rz
    limits (-160.0 20.0)
           (-70.0 70.0)
           (-60.0 70.0)
  end
  begin
     id 3 
     name ltibia
     direction 0.34202 -0.939693 0   
     length 8.36008   
     axis 0 0 20   XYZ
    dof rx
    limits (-10.0 170.0)
  end
  begin
     id 4 
     name lfoot
     direction 0.0969116 -0.266263 0.959016   
     length 2.16704   
     axis -90 7.62852e-016 20   XYZ
    dof rx rz
    limits (-45.0 90.0)
           (-70.0 20.0)
  end
  begin
     id 5 
     name ltoes
     direction 1.53563e-011 -4.21779e-011 1   
     length 1.08338   
     axis -90 7.62852e-016 20   XYZ
    dof rx
    limits (-90.0 20.0)
  end
  begin
     id 6 
     name rhipjoint
     direction -0.588228 -0.754791 0.290308   
     length 2.39434  
     axis 0 0 0  XYZ 
  end
  begin
     id 7 
     name rfemur
     direction -0.34202 -0.939693 0   
     length 7.45207   
     axis 0 0 -20   XYZ
    dof rx ry rz
    limits (-160.0 20.0)
           (-70.0 70.0)
           (-70.0 60.0)
  end
  begin
     id 8 
     name rtibia
     direction -0.34202 -0.939693 0   
     length 8.03565   
     axis 0 0 -20   XYZ
    dof rx
    limits (-10.0 170.0)
 end
 begin
     id 9 
     name rfoot
     direction -0.107009 -0.294004 0.949795   
     length 2.11509  
     axis -90 -7.62852e-016 -20   XYZ
    dof rx rz
    limits (-45.0 90.0)
           (-20.0 70.0)
  end
  begin
     id 10 
     name rtoes
     direction -1.53533e-011 -4.22004e-011 1   
     length 1.05493   
     axis -90 -7.62852e-016 -20   XYZ
    dof rx
    limits (-90.0 20.0)
  end
  begin
     id 11 
     name lowerback
     direction -0.0115208 0.997969 -0.0626515   
     length 2.03153   
     axis 0 0 0   XYZ
    dof rx ry rz
    limits (-20.0 45.0)
           (-30.0 30.0)
           (-30.0 30.0)
  end
  begin
     id 12 
     name upperback
     direction -0.00423475 0.999974 -0.00583614   
     length 2.03619   
     axis 0 0 0   XYZ
    dof rx ry rz
    limits (-20.0 45.0)
           (-30.0 30.0)
           (-30.0 30.0)
  end
  begin
     id 13 
     name thorax
     direction 0.00289429 0.999728 0.0231573   
     length 2.03921   
     axis 0 0 0   XYZ
    dof rx ry rz
    limits (-20.0 45.0)
           (-30.0 30.0)
           (-30.0 30.0)
  end
  begin
     id 14 
     name lowerneck
     direction 0.0188995 0.987777 0.154721   
     length 1.78836   
     axis 0 0 0   XYZ
    dof rx ry rz
    limits (-20.0 45.0)
           (-30.0 30.0)
           (-30.0 30.0)
  end
  begin
     id 15 
     name upperneck
     direction -0.00612612 0.992995 -0.118   
     length 1.81789   
     axis 0 0 0   XYZ
    dof rx ry rz
    limits (-20.0 45.0)
           (-30.0 30.0)
           (-30.0 30.0)
  end
  begin
     id 16
     name head
     direction -0.00420226 0.998397 -0.0564482  
     length 1.82234  
     axis 0 0 0   XYZ
    dof rx ry rz
    limits (-20.0 45.0)
           (-30.0 30.0)
           (-30.0 30.0)
  end
  begin
     id 17 
     name lclavicle
     direction 0.916488 0.396539 0.0529676  
     length 3.51732  
     axis 0 0 0   XYZ
    dof ry rz
    limits (-20.0 10.0)
           (0.0 20.0)
  end
  begin
     id 18 
     name lhumerus
     direction 1 -4.4896e-011 8.36962e-028   
     length 5.45077   
     axis 180 -30 -90   XYZ
    dof rx ry rz
    limits (-60.0 90.0)
           (-90.0 90.0)
           (-90.0 90.0)
  end
  begin
     id 19
     name lradius
     direction 1 -4.48962e-011 3.01407e-027   
     length 3.05488   
     axis 180 -30 -90   XYZ
    dof rx
    limits (-10.0 170.0)
  end
  begin
     id 20
     name lwrist
     direction 1 -4.49002e-011 4.72961e-027   
     length 1.52744   
     axis -2.72261e-015 90 90   XYZ
    dof ry
    limits (-180.0 0.0)
 end
  begin
     id 21 
     name lhand
     direction 1 -4.4899e-011 9.45681e-027   
     length 0.638818   
     axis -6.0311e-015 90 90   XYZ
    dof rx rz
    limits (-90.0 90.0)
           (-45.0 45.0)
  end
  begin
     id 22 
     name lfingers
     direction 1 -4.48871e-011 1.88632e-026   
     length 0.515032   
     axis -1.20625e-014 90 90   XYZ
    dof rx
    limits (0.0 90.0)
  end
  begin
     id 23
     name lthumb
     direction 0.707107 -6.34964e-011 0.707107   
     length 0.739485   
     axis -90 45 6.32835e-014   XYZ
    dof rx rz
    limits (-45.0 45.0)
           (-45.0 45.0)
  end
  begin
     id 24 
     name rclavicle
     direction -0.949427 0.303202 0.0815894   
     length 3.76167  
     axis 0 0 0   XYZ 
    dof ry rz
    limits (-10.0 20.0)
           (-20.0 0.0)
  end
  begin
     id 25 
     name rhumerus
     direction -1 -4.48971e-011 -6.43969e-018  
     length 4.88702   
     axis 180 30 90   XYZ
    dof rx ry rz
    limits (-90.0 60.0)
           (-90.0 90.0)
           (-90.0 90.0)
  end
  begin
     id 26 
     name rradius
     direction -1 -4.48987e-011 5.46662e-027   
     length 3.22603   
     axis 180 30 90   XYZ
    dof rx
    limits (-10.0 170.0)
  end
  begin
     id 27 
     name rwrist
     direction -1 -4.48956e-011 4.72476e-027   
     length 1.61302   
     axis -2.72261e-015 -90 -90   XYZ
    dof ry
    limits (-180.0 0.0)
  end
  begin
     id 28
     name rhand
     direction -1 -4.4889e-011 9.43571e-027   
     length 0.716293   
     axis -6.0311e-015 -90 -90   XYZ
    dof rx rz
    limits (-90.0 90.0)
           (-45.0 45.0)
  end
  begin
     id 29
     name rfingers
     direction -1 -4.48887e-011 1.88701e-026   
     length 0.577494   
     axis -1.20625e-014 -90 -90   XYZ
    dof rx
    limits (0.0 90.0)
  end
  begin
     id 30
     name rthumb
     direction -0.707107 -6.34825e-011 0.707107   
     length 0.829169   
     axis -90 -45 -6.32835e-014   XYZ
    dof rx rz
    limits (-45.0 45.0)
           (-45.0 45.0)
  end
:hierarchy
  begin
    root lhipjoint rhipjoint lowerback
    lhipjoint lfemur
    lfemur ltibia
    ltibia lfoot
    lfoot ltoes
    rhipjoint rfemur
    rfemur rtibia
    rtibia rfoot
    rfoot rtoes
    lowerback upperback
    upperback thorax
    thorax lowerneck lclavicle rclavicle
    lowerneck upperneck
    upperneck head
    lclavicle lhumerus
    lhumerus lradius
    lradius lwrist
    lwrist lhand lthumb
    lhand lfingers
    rclavicle rhumerus
    rhumerus rradius
    rradius rwrist
    rwrist rhand rthumb
    rhand rfingers
  end

#!OML:ASF F:\VICON\USERDATA\INSTALL\rory3\rory3.ASF
:FULLY-SPECIFIED
:DEGREES
625
root 1.74057 18.4725 0.0233339 16.521 91.9875 6.05555
lowerback -9.09487 -1.35908 0.329952
upperback -3.17888 -1.75119 0.493316
thorax 1.8079 -0.831661 0.141669
lowerneck -14.3097 -2.93556 -0.928986
upperneck 18.3656 -3.87764 0.80022
head 8.08281 -1.77349 -0.00398645
rclavicle -1.3404e-014 8.05078e-015
rhumerus -30.8969 -8.61165 -85.0998
rradius 38.4278
rwrist -153.867
rhand -23.3337 -6.38092
rfingers 7.12502
rthumb 3.12083 -36.3378
lclavicle -1.3404e-014 8.05078e-015
lhumerus -36.4396 -14.4195 92.4477
lradius 35.21
lwrist 13.0848
lhand -10.3751 27.1081
lfingers 7.12502
lthumb 15.6224 56.4972
rfemur -2.84785 -12.6003 17.4798
rtibia -1.11319e-014
rfoot -7.0189 0.465215
rtoes -16.8082
lfemur -12.6648 8.40707 -17.7052
ltibia 19.151
lfoot -15.9201 -3.80463
ltoes -27.1983
626
root 1.74175 18.4728 0.0244278 19.8663 91.9504 9.3985
lowerback -9.09286 -1.3409 0.460949
upperback -3.19769 -1.73774 0.499903
thorax 1.78353 -0.825083 0.0767136
lowerneck -14.2146 -2.91556 -0.814351
upperneck 18.3034 -3.85875 0.715512
head 8.0406 -1.76611 -0.0467379
rclavicle 1.51318e-014 -5.96354e-016
rhumerus -30.946 -8.63076 -85.1304
rradius 38.4685
rwrist -153.846
rhand -23.3097 -6.42903
rfingers 7.12502
rthumb 3.14397 -36.3856
lclavicle 1.51318e-014 -5.96354e-016
lhumerus -36.4497 -14.3148 92.3744
lradius 35.0881
lwrist 12.8123
lhand -12.1166 26.1525
lfingers 7.12502
lthumb 13.9447 55.6649
rfemur -2.85409 -12.5284 17.5876
rtibia -1.51076e-014
rfoot -7.0489 0.509396
rtoes -16.4666
lfemur -12.6475 8.42185 -17.5914
ltibia 19.142
lfoot -15.936 -3.72246
ltoes -27.3322
627
root 1.74051 18.4739 0.0248888 21.2435 91.9224 10.7441
lowerback -9.10606 -1.33308 0.517636
upperback -3.20955 -1.73173 0.499359
thorax 1.77679 -0.822061 0.0448462
lowerneck -14.2183 -2.90835 -0.799442
upperneck 18.3293 -3.85435 0.726734
head 8.04977 -1.76139 -0.0452195
rclavicle -1.58409e-014 -4.42296e-015
rhumerus -30.9512 -8.63836 -85.1518
rradius 38.5339
rwrist -153.806
rhand -23.3417 -6.34678
rfingers 7.12502
rthumb 3.1131 -36.3038
lclavicle -1.58409e-014 -4.42296e-015
lhumerus -36.4325 -14.2692 92.332
lradius 34.9862
lwrist 12.6411
lhand -12.6433 26.9459
lfingers 7.12502
lthumb 13.437 56.4925
rfemur -2.89993 -12.4871 17.6312
rtibia 0
rfoot -7.02983 0.480601
rtoes -15.8723
lfemur -12.6872 8.42938 -17.5613
ltibia 19.148
lfoot -15.942 -3.65717
ltoes -27.4285
628
root 1.73794 18.4734 0.0267874 19.2916 91.8978 8.75507
lowerback -9.12914 -1.353 0.437872
upperback -3.21387 -1.75061 0.476012
thorax 1.78672 -0.831202 0.0630596
lowerneck -14.2314 -2.89783 -0.817446
upperneck 18.3315 -3.84809 0.786227
head 8.05448 -1.75363 -0.0221082
rclavicle -3.40989e-014 -8.34896e-015
rhumerus -30.9174 -8.62048 -85.1841
rradius 38.5623
rwrist -153.778
rhand -23.2947 -6.40184
rfingers 7.12502
rthumb 3.15848 -36.3582
lclavicle -3.40989e-014 -8.34896e-015
lhumerus -36.4547 -14.3072 92.3487
lradius 34.9042
lwrist 12.6912
lhand -10.5969 27.9152
lfingers 7.12502
lthumb 15.4088 57.321
rfemur -2.9511 -12.4882 17.57
rtibia 0
rfoot -7.01524 0.483049
rtoes -15.8047
lfemur -12.7444 8.43904 -17.6377
ltibia 19.1547
lfoot -15.9127 -3.67922
ltoes -27.4562
629
root 1.7378 18.4741 0.0280448 19.3093 91.8793 8.75826
lowerback -9.16066 -1.35068 0.422054
upperback -3.20182 -1.7466 0.473942
thorax 1.81696 -0.829149 0.0692825
lowerneck -14.2344 -2.91601 -0.803492
upperneck 18.3003 -3.87813 0.793207
head 8.04473 -1.76675 -0.0252636
rclavicle 6.41879e-015 2.43511e-015
rhumerus -30.8656 -8.58403 -85.1993
rradius 38.5743
rwrist -153.775
rhand -23.1676 -6.3869
rfingers 7.12502
rthumb 3.28128 -36.3414
lclavicle 6.41879e-015 2.43511e-015
lhumerus -36.4642 -14.402 92.4138
lradius 34.828
lwrist 12.7476
lhand -8.87718 28.3527
lfingers 7.12502
lthumb 17.0647 57.6232
rfemur -2.98454 -12.4697 17.5797
rtibia 7.95139e-016
rfoot -7.0493 0.466337
rtoes -16.1745
lfemur -12.752 8.41173 -17.6338
ltibia 19.1539
lfoot -15.897 -3.66654
ltoes -27.3979
630
root 1.73863 18.4734 0.0283522 19.5214 91.8539 9.00054
lowerback -9.1517 -1.34068 0.430716
upperback -3.18363 -1.7347 0.465158
thorax 1.83031 -0.823556 0.05656
lowerneck -14.2574 -2.91789 -0.779203
upperneck 18.3139 -3.88674 0.794835
head 8.05299 -1.76873 -0.0301307
rclavicle -9.30347e-017 -2.47487e-014
rhumerus -30.8181 -8.48737 -85.2242
rradius 38.571
rwrist -153.865
rhand -23.0084 -6.41149
rfingers 7.12502
rthumb 3.43495 -36.3636
lclavicle -9.30347e-017 -2.47487e-014
lhumerus -36.4819 -14.5165 92.4896
lradius 34.7414
lwrist 12.7803
lhand -9.36602 28.2401
lfingers 7.12502
lthumb 16.5941 57.5506
rfemur -2.95514 -12.4412 17.5781
rtibia 9.54166e-015
rfoot -7.04756 0.464182
rtoes -16.677
lfemur -12.6834 8.36249 -17.6142
ltibia 19.1264
lfoot -15.8941 -3.67784
ltoes -27.0677
631
root 1.73871 18.4732 0.0303133 19.5786 91.8503 9.07696
lowerback -9.1346 -1.33889 0.421155
upperback -3.17525 -1.73173 0.458422
thorax 1.82964 -0.82227 0.0555729
lowerneck -14.307 -2.91304 -0.7328
upperneck 18.3707 -3.88806 0.781767
head 8.07955 -1.7664 -0.0434076
rclavicle 4.47285e-015 -9.83984e-015
rhumerus -30.7904 -8.50563 -85.2315
rradius 38.5884
rwrist -153.923
rhand -23.0549 -6.3372
rfingers 7.12502
rthumb 3.39011 -36.29
lclavicle 4.47285e-015 -9.83984e-015
lhumerus -36.4854 -14.5083 92.4996
lradius 34.6409
lwrist 12.6811
lhand -9.77452 28.0614
lfingers 7.12502
lthumb 16.2008 57.4045
rfemur -2.93261 -12.4352 17.5825
rtibia -8.74653e-015
rfoot -7.03596 0.462353
rtoes -16.747
lfemur -12.6363 8.31457 -17.5977
ltibia 19.1061
lfoot -15.9161 -3.63504
ltoes -27.0754
632
root 1.73932 18.4738 0.0321255 16.8099 91.8072 6.32602
lowerback -9.12255 -1.33834 0.314663
upperback -3.17239 -1.72128 0.43124
thorax 1.82836 -0.817014 0.0886233
lowerneck -14.3071 -2.91176 -0.771286
upperneck 18.4014 -3.8913 0.850404
head 8.09219 -1.76307 -0.014928
rclavicle -1.373e-014 5.01931e-015
rhumerus -30.7861 -8.48383 -85.2256
rradius 38.6238
rwrist -153.97
rhand -23.2354 -6.32562
rfingers 7.12502
rthumb 3.21581 -36.2811
lclavicle -1.373e-014 5.01931e-015
lhumerus -36.5043 -14.4262 92.5077
lradius 34.5258
lwrist 12.4409
lhand -11.8324 22.6902
lfingers 7.12502
lthumb 14.2185 52.1836
rfemur -2.90028 -12.4233 17.4626
rtibia -1.03368e-014
rfoot -7.04398 0.49566
rtoes -16.1523
lfemur -12.6071 8.42036 -17.7098
ltibia 19.1052
lfoot -15.9243 -3.63053
ltoes -27.4372
633
root 1.73902 18.4727 0.0333596 16.8485 91.7743 6.33139
lowerback -9.17807 -1.33479 0.320817
upperback -3.16721 -1.71685 0.417131
thorax 1.86365 -0.814679 0.0697044
lowerneck -14.3582 -2.89409 -0.808567
upperneck 18.4467 -3.87272 0.919298
head 8.11864 -1.74905 0.0149809
rclavicle 1.88485e-014 1.3418e-015
rhumerus -30.73 -8.48098 -85.2427
rradius 38.6089
rwrist -153.976
rhand -23.239 -6.30902
rfingers 7.12502
rthumb 3.21233 -36.2646
lclavicle 1.88485e-014 1.3418e-015
lhumerus -36.5163 -14.4653 92.5191
lradius 34.4638
lwrist 12.43
lhand -13.1424 18.972
lfingers 7.12502
lthumb 12.9559 48.5497
rfemur -2.94516 -12.3925 17.467
rtibia -3.18055e-015
rfoot -7.03363 0.505009
rtoes -16.1699
lfemur -12.6618 8.50322 -17.7225
ltibia 19.1258
lfoot -15.883 -3.68704
ltoes -27.2238
634
root 1.73753 18.4726 0.0339359 20.066 91.7884 9.51392
lowerback -9.21052 -1.34899 0.431884
upperback -3.18132 -1.74525 0.43583
thorax 1.86411 -0.828705 0.0231103
lowerneck -14.3328 -2.86571 -0.722346
upperneck 18.4518 -3.84098 0.859932
head 8.1124 -1.73389 -0.0149176
rclavicle 1.46937e-014 5.2181e-015
rhumerus -30.7024 -8.49235 -85.2755
rradius 38.5947
rwrist -153.916
rhand -23.2036 -6.42811
rfingers 7.12502
rthumb 3.24651 -36.3831
lclavicle 1.46937e-014 5.2181e-015
lhumerus -36.5479 -14.3453 92.478
lradius 34.4157
lwrist 12.2886
lhand -13.0999 20.6149
lfingers 7.12502
lthumb 12.9969 50.1901
rfemur -2.99794 -12.3733 17.5957
rtibia 7.95139e-016
rfoot -7.02938 0.476727
rtoes -15.9603
lfemur -12.7149 8.43721 -17.6082
ltibia 19.1461
lfoot -15.8967 -3.62839
ltoes -27.0668
